<svg width="24" height="24" viewBox="0 0 24 24" fill="none" xmlns="http://www.w3.org/2000/svg">
<rect width="24" height="24" fill="black"/>
<path fill-rule="evenodd" clip-rule="evenodd" d="M6.7574 16.2341C6.52204 16.1645 6.30729 16.0406 6.13128 15.8729C5.95526 15.7053 5.82314 15.4987 5.74607 15.2707C5.30565 14.0924 5.17516 9.17216 6.02337 8.20084C6.30567 7.88487 6.70424 7.69033 7.13256 7.65946C9.40805 7.42061 16.4384 7.45245 17.2458 7.73907C17.4729 7.81099 17.6804 7.93215 17.8527 8.09347C18.025 8.25479 18.1577 8.45209 18.2408 8.67058C18.722 9.8887 18.7383 14.3153 18.1756 15.4857C18.0263 15.7903 17.7764 16.0371 17.466 16.1863C16.6178 16.6003 7.8829 16.5924 6.7574 16.2341ZM10.3704 13.9252L14.4484 11.8552L10.3704 9.76928V13.9252Z" fill="white"/>
</svg>
