<svg width="24" height="24" viewBox="0 0 24 24" fill="none" xmlns="http://www.w3.org/2000/svg">
<rect width="24" height="24" fill="black"/>
<path d="M12.5894 16.1998C8.07948 16.1998 5.50709 13.0467 5.3999 7.7998H7.65899C7.73319 11.6509 9.39865 13.2821 10.7178 13.6184V7.7998H12.845V11.1211C14.1477 10.9782 15.5163 9.46467 15.978 7.7998H18.1052C17.9312 8.66325 17.5844 9.4808 17.0865 10.2013C16.5885 10.9218 15.9501 11.5298 15.2113 11.9872C16.036 12.4051 16.7645 12.9967 17.3486 13.7229C17.9327 14.449 18.3592 15.2932 18.5999 16.1998H16.2584C16.0423 15.4124 15.6031 14.7075 14.9959 14.1735C14.3887 13.6395 13.6405 13.3002 12.845 13.198V16.1998H12.5894Z" fill="white"/>
</svg>
