<svg width="24" height="24" viewBox="0 0 24 24" fill="none" xmlns="http://www.w3.org/2000/svg">
<rect width="24" height="24" fill="black"/>
<path d="M15.215 7.27295H5.0625V18.227H7.88822V14.6633H13.3028L15.7733 18.227H18.9374L16.2132 14.6469C17.0593 14.5155 17.6684 14.2034 18.0407 13.7108C18.4129 13.2181 18.5991 12.4298 18.5991 11.3787V10.5576C18.5991 9.93348 18.5315 9.44082 18.413 9.06311C18.2945 8.68539 18.0914 8.35689 17.8038 8.06129C17.4992 7.78211 17.1608 7.58504 16.7547 7.4537C16.3486 7.33876 15.8409 7.27295 15.215 7.27295ZM14.7581 12.2492H7.88822V9.68711H14.7581C15.1472 9.68711 15.4179 9.75273 15.5533 9.86776C15.6887 9.9827 15.7733 10.1962 15.7733 10.5083V11.4279C15.7733 11.7564 15.6887 11.9698 15.5533 12.0848C15.4179 12.1997 15.1473 12.249 14.7581 12.249V12.2492Z" stroke="white" stroke-linecap="round" stroke-linejoin="round"/>
<path d="M18.3684 7.08545C18.8859 7.08545 19.3057 6.66573 19.3057 6.14795C19.3057 5.63017 18.8859 5.21045 18.3684 5.21045C17.8505 5.21045 17.4307 5.63017 17.4307 6.14795C17.4307 6.66573 17.8505 7.08545 18.3684 7.08545Z" fill="white"/>
</svg>
