<svg width="24" height="25" viewBox="0 0 24 25" fill="none" xmlns="http://www.w3.org/2000/svg">
<path d="M1.25 7.44531C1.25 4.1316 3.93629 1.44531 7.25 1.44531H16.75C20.0637 1.44531 22.75 4.1316 22.75 7.44531V16.9453C22.75 20.259 20.0637 22.9453 16.75 22.9453H7.25C3.93629 22.9453 1.25 20.259 1.25 16.9453V7.44531Z" fill="#ED5728" fill-opacity="0.1"/>
<path fill-rule="evenodd" clip-rule="evenodd" d="M17.3286 6.87153C17.4692 7.01218 17.5482 7.20295 17.5482 7.40186L17.5482 14.4729C17.5482 14.8871 17.2124 15.2229 16.7982 15.2229C16.384 15.2229 16.0482 14.8871 16.0482 14.4729L16.0482 9.21252L7.73211 17.5286C7.43922 17.8215 6.96434 17.8215 6.67145 17.5286C6.37856 17.2357 6.37856 16.7609 6.67145 16.468L14.9876 8.15186L9.72716 8.15186C9.31295 8.15186 8.97716 7.81607 8.97716 7.40186C8.97716 6.98764 9.31295 6.65186 9.72716 6.65186L16.7982 6.65186C16.9971 6.65186 17.1879 6.73088 17.3286 6.87153Z" fill="#ED5728"/>
</svg>
